<?xml version="1.0" standalone="no"?>
<!DOCTYPE svg PUBLIC "-//W3C//DTD SVG 20010904//EN"
 "http://www.w3.org/TR/2001/REC-SVG-20010904/DTD/svg10.dtd">
<svg version="1.0" xmlns="http://www.w3.org/2000/svg"
 width="700.000000pt" height="700.000000pt" viewBox="0 0 700.000000 700.000000"
 preserveAspectRatio="xMidYMid meet">
<metadata>
Created by potrace 1.11, written by Peter Selinger 2001-2013
</metadata>
<g transform="translate(0.000000,700.000000) scale(0.100000,-0.100000)"
fill="#000000" stroke="none">
<path d="M0 3500 l0 -3500 3500 0 3500 0 0 3500 0 3500 -3500 0 -3500 0 0
-3500z m3698 3229 c90 -24 168 -62 247 -122 33 -25 292 -279 576 -564 558
-561 581 -587 632 -743 14 -41 27 -83 29 -94 2 -13 18 -23 57 -33 81 -20 159
-54 226 -98 69 -44 1033 -998 1126 -1113 108 -134 159 -276 159 -444 0 -122
-25 -221 -86 -341 -46 -88 -59 -103 -326 -372 l-277 -280 -206 205 -205 205
244 245 c134 135 251 259 260 277 20 40 20 76 2 111 -8 15 -241 253 -518 529
-347 346 -512 504 -531 509 -69 16 -75 12 -642 -556 l-540 -540 678 -678 677
-677 -203 -203 c-111 -111 -207 -202 -212 -202 -5 0 -312 303 -682 672 l-673
673 -573 -573 -572 -572 673 -673 c369 -369 672 -677 672 -682 0 -5 -91 -101
-202 -212 l-203 -203 -1562 1562 -1563 1563 0 205 0 205 1442 1441 c794 793
1465 1456 1491 1474 175 117 383 152 585 99z"/>
<path d="M3455 6155 c-34 -18 -1085 -1064 -1085 -1080 0 -6 256 -267 570 -580
l570 -570 540 540 c578 578 575 574 551 646 -8 24 -154 177 -520 543 -498 498
-509 508 -552 513 -29 2 -55 -2 -74 -12z"/>
<path d="M1372 4087 l-572 -572 575 -575 575 -575 572 573 573 572 -575 575
-575 575 -573 -573z"/>
</g>
</svg>
