<svg id="Layer_1" data-name="Layer 1" xmlns="http://www.w3.org/2000/svg" viewBox="0 0 212.54 145.61"><defs><style>.cls-1{fill:#FFFFFF;}</style></defs><path class="cls-1" d="M48.38,118.11c.13-.2.22-.57.38-.59,3.18-.52,6.38-1,9.56-1.51a2.46,2.46,0,0,0,1.36-.83c1.78-2.22,3.53-4.46,5.22-6.74,1.14-1.53,2.16-3.16,3.25-4.72.72-1,1.51-2,2.21-3,.89-1.34,1.68-2.74,2.58-4.07s1.71-2.47,2.67-3.62a3.51,3.51,0,0,1,1.4-.67,6.77,6.77,0,0,1,1-.23c.14,0,.34-.14.41-.08.47.38,1.22.74,1.3,1.21a3.38,3.38,0,0,1-.32,2.46c-1.31,1.58-2.92,2.91-4.34,4.39a43.52,43.52,0,0,0-3.1,3.55c-1.73,2.24-3.38,4.56-5.08,6.82-1.08,1.44-2.2,2.84-3.28,4.26a2.75,2.75,0,0,0-.22.75l2.94-.25c.76,0,1.53-.06,2.28-.13a1,1,0,0,0,.66-.3c.08-.11,0-.45-.18-.62-1.06-1.43-.52-2.69,1.2-3.2a12.92,12.92,0,0,0,7-5.16,16.26,16.26,0,0,0,2-3.38c.78-2.08,1.85-4.14,1.25-6.56-.17-.67.3-1.49.39-2.25.31-2.75.61-5.5.88-8.25.22-2.28.39-4.58.56-6.87a3.69,3.69,0,0,0-.12-.92L82,77.44c-.7,1.21-1.42,2.41-2.1,3.63-.49.88-.94,1.77-1.38,2.67-.36.73-.65,1.5-1,2.21-.8,1.52-1.63,3-2.46,4.52a28.78,28.78,0,0,1-1.61,2.81c-.93,1.32-2,2.56-3,3.83-1.37,1.75-2.87,3.42-4.09,5.27a11.3,11.3,0,0,1-4.54,3.78,3,3,0,0,1-3.26-.24c-1.39-.91-1.4-1.34-.14-2.45a2.56,2.56,0,0,1,1.83-.92c.6,0,1.25-.77,1.79-1.29s.77-1,1.66-1c.73-.06,1.5-.91,2-1.58,1.09-1.37,2-2.88,3-4.31.89-1.25,1.87-2.43,2.7-3.72,1.1-1.7,2.17-3.43,3.1-5.22,1.67-3.21,3.25-6.47,4.83-9.72.5-1,.86-2.15,1.28-3.23.75-1.92,1.64-3.81,2.22-5.78.77-2.6,1.35-5.27,1.9-7.93.27-1.33.2-2.72.44-4.06.32-1.73.83-3.43,1.2-5.15a16.56,16.56,0,0,0,.13-1.74c.08-.7.16-1.4.3-2.09.19-1,.44-2,.65-3q.84-3.9,1.66-7.8c.08-.42.06-.85.17-1.26.59-2,1.21-4.09,1.79-6.14.12-.45.07-.94.17-1.39.42-1.91.78-3.84,1.31-5.71.38-1.32,1-2.56,1.48-3.87.33-1,.46-2,.74-3,.65-2.29,1.36-4.56,2-6.84.42-1.48.76-3,1.2-4.44a1.59,1.59,0,0,1,.74-.95C99.5,1,99.6-.24,100.71,0a1.15,1.15,0,0,1,.6.27c1,1.28,1.52,2.61.7,4.22a3.72,3.72,0,0,0-.16,1.31c-.16,1.66-.21,3.34-.49,5-.64,3.66-1.37,7.3-2.11,10.94-.29,1.42-.77,2.8-1.08,4.22-.23,1-.26,2.08-.47,3.11-.15.71-.5,1.38-.69,2.09q-1.2,4.37-2.35,8.74c-.51,2-.91,3.95-1.51,5.88-.75,2.45-1.68,4.83-2.47,7.27-.73,2.23-1.31,4.52-2.07,6.75-.61,1.76-1.39,3.47-2.09,5.2,0,0,0,.06,0,.08.18,2.46-1,4.68-1.25,7.05-.22,1.83-.47,3.66-.65,5.49s-.26,3.72-.42,5.58-.33,3.6-.49,5.4a1.14,1.14,0,0,0,.27.83A10.3,10.3,0,0,0,84.86,88c1-2.39,1.92-4.82,3-7.2.56-1.3,1.33-2.5,1.94-3.77.51-1.09.88-2.24,1.38-3.32,1.16-2.5,1.9-5.2,3.66-7.41a11.87,11.87,0,0,0,1-2.32,7.67,7.67,0,0,1,.76-1.26,61.89,61.89,0,0,1,4.66-6.08,3.27,3.27,0,0,1,3.27-1.2c0-.81.33-.7,1.16-.66,1.89.08,1.6,1.27,1.48,2.3a13.09,13.09,0,0,1-.83,2.6c-.38,1.13-.74,2.27-1.17,3.37-.53,1.39-1.14,2.75-1.62,3.9.75-.72,1.66-1.5,2.46-2.38s1.3-1.75,2-2.58a21.12,21.12,0,0,1,2.37-2.36c.31-.27.89-.21,1.45-.32l1.71-1.16c1.62,1.69,1.65,2.71.55,4.72-1,1.77-1.74,3.63-2.65,5.43-.41.83-1,1.59-1.41,2.41-.36.65-.67,1.33-1,2-1.09,2.22-2.22,4.43-3.26,6.67-.63,1.36-1.11,2.79-1.7,4.18a17.66,17.66,0,0,1-.89,1.58l.28.27c.52-.33,1.07-.62,1.56-1,1.69-1.3,3.29-2.74,5.07-3.9,1.44-.94,3-2,4.89-1.57.8.18,1.49.48,1.63,1.44,0,.25.29.47.5.79-.27,1.09-.56,2.29-.86,3.49a2.91,2.91,0,0,1-.12.51,33.06,33.06,0,0,1-1.86,4.26c-1.53,2.54-3.22,5-4.87,7.44-1.45,2.15-2.91,4.3-4.44,6.4a29,29,0,0,1-2.64,3c-1.85,1.91-3.77,3.76-5.62,5.67a14.38,14.38,0,0,0-1.26,1.78c2.92-.21,5.55-.42,8.17-.59.56,0,1.12.15,1.67.14,3.53,0,7.06-.15,10.59-.13,4.07,0,8.14.16,12.2.25l9.46.2a6.2,6.2,0,0,1,.62.06c3.08.39,6.18.64,9.22,1.23a64.48,64.48,0,0,1,7.53,2.15c1.08.36.66,1.49.7,2.29,0,.52-.13,1.38-.45,1.51A4.64,4.64,0,0,1,153,121a28.82,28.82,0,0,1-3-.52c-.93-.19-1.86-.42-2.77-.69-.15,0-.26-.39-.31-.61a7.46,7.46,0,0,1-.1-1l-.66.36c-1.87-.4-3.63-.83-5.42-1.17-1.48-.27-3-.49-4.47-.63-1.2-.11-2.41,0-3.61-.09-2.11-.11-4.23-.31-6.35-.39-1,0-2,.1-3,.16,0,0-.12.09-.15.07-1.57-.81-3.25-.27-4.87-.33-2.27-.08-4.55.21-6.82.24s-4.72-.07-7.08-.1c-1.43,0-2.86,0-4.28,0-.94,0-1.86.16-2.8.21-1.57.07-3.16.08-4.73.19a1.81,1.81,0,0,0-1,.57c-2.5,2.66-5.22,5.09-8.82,6-1.33.32-1.17.86-1.2,1.69,0,.55-.09,1.11-.15,1.87,1.5-.15,2.9-.3,4.3-.43s2.68-.22,4-.3c2.48-.16,5-.25,7.45-.47s4.67-.61,7-.81c2.65-.24,5.3-.38,8-.5,2.06-.09,4.12,0,6.17-.11,1.43-.07,2.86-.29,4.29-.4.24,0,.5.18.75.27l-.05.54c-.86,0-1.71,0-2.56.13a2.58,2.58,0,0,0-.7.25l1.73.28,1.83.27c0-.24,0-.31,0-.35l-.57-1a4.25,4.25,0,0,1,1-.37c2.85-.28,5.69-.59,8.55-.77,2.69-.16,5.38-.22,8.08-.25a4.58,4.58,0,0,1,1.41.52l-.29.23-.78.19c2.19.92,3.6.72,3.85-.22-.64.32-1.38-.91-1.92.3,0,.06-.39,0-.54,0a.48.48,0,0,1-.19-.43c0-.16.21-.38.34-.4q1.4-.18,2.79-.27c2.23-.13,4.46-.26,6.69-.36,1.32-.06,2.64,0,4-.1,2.84-.14,5.67-.35,8.5-.43,1.25,0,2.51.23,3.77.23s2.36-.19,3.55-.26c.38,0,.77.12,1.15.11,2.34-.07,4.68-.18,7-.25,2-.06,4-.1,6-.13,2.56,0,5.13,0,7.7-.1,3-.08,6-.25,8.93-.32,1.75,0,3.51.1,5.27.09a2.89,2.89,0,0,0,1.33-.37,2.63,2.63,0,0,1,3.06.28c.3.25.28,1,.28,1.51a2.08,2.08,0,0,1-1.92,2c-3.37,0-6.73,0-10.09,0-2.8,0-5.6,0-8.4,0-2.08,0-4.17-.15-6.25-.16-1.59,0-3.17.09-4.75.14-.06,0-.12,0-.18,0-2.1-.62-4.2-.1-6.31-.05s-4.11-.14-6.16-.1c-2.85.06-5.7.29-8.55.36-3.26.07-6.53,0-9.79.06-2.61,0-5.21.15-7.82.22-3.25.09-6.5.11-9.74.27-2.74.13-5.48.41-8.22.63-3.43.28-6.85.63-10.28.84-1.67.11-3.36-.15-5,0-3.23.27-6.45.72-9.67,1-1.08.11-2.18,0-3.26.08-2.47.22-4.94.52-7.41.77-2.17.21-4.35.39-6.51.61-.84.09-1.13.57-.88,1.4a3.27,3.27,0,0,1,.06.89l1.42-.86v2.35c.75.31.43,1.19.31,1.92-.46,2.59-1,5.16-1.49,7.75a9.79,9.79,0,0,1-.31,1.9,1.6,1.6,0,0,1-1,.83c-.46.1-.8-.05-1.11-.74-1-2.18,0-4.33-.16-6.48-.2-2.88,0-5.78,0-8.78-1.42.15-3.08.33-4.75.48-2.18.21-4.36.38-6.54.59-1.31.12-2.61.3-3.92.4-1.62.14-3.26.16-4.89.35-2.59.31-5.17.77-7.76,1.06a3.84,3.84,0,0,0-2.23,1,1.54,1.54,0,0,1-2.1-.19,1.36,1.36,0,0,0-.9-.3q-3.22.27-6.44.64c-2.68.31-5.36.68-8.05,1-1,.11-2,.1-3.06.22-1.22.14-2.42.38-3.64.52-1,.13-2.05.17-3.07.26-1.47.13-2.93.3-4.39.42-1.22.09-2.44.13-3.66.2-1.75.09-3.5.22-5.25.26a9.78,9.78,0,0,1-2.54-.23c-1.77-.43-3.51-1-5.24-1.53-.25-.08-.6-.56-.54-.77a6.08,6.08,0,0,1,.88-2.27c1.39-1.77,3.54-2.44,5.47-3.41.29-.15.59-.26.91-.41l-.08-.47c0-.08,0,.15,0,.47,1.19-.44,2.28-.91,3.41-1.25,2.94-.91,5.9-1.8,8.87-2.62,3.54-1,7.08-1.94,10.66-2.77,3.13-.74,6.32-1.28,9.48-1.92,2.16-.43,4.31-1,6.48-1.31a9.9,9.9,0,0,1,2.35.14v0ZM82,113.87h7.26a4.24,4.24,0,0,0,3.34-1.63c1.15-1.3,2.41-2.49,3.6-3.74s2.55-2.61,3.73-4,2.41-3,3.58-4.58c.91-1.22,1.8-2.45,2.63-3.72,1-1.59,2-3.2,3-4.83.76-1.28,1.54-2.55,2.18-3.89s1-2.7,1.67-4.31l-1.8.89c-.26.07-.39.46-.67.65-1.78,1.25-3.61,2.45-5.4,3.7-1.43,1-2.73,2.32-4.7,1.92a14.88,14.88,0,0,1-2-.77,17.34,17.34,0,0,1,.28-3.18,20.68,20.68,0,0,1,1.34-3,8.1,8.1,0,0,1,.43-1.1c.69-1.13,1.53-2.19,2.14-3.36,1.21-2.34,2.32-4.73,3.45-7.12.53-1.13,1-2.29,1.49-3.43a5.64,5.64,0,0,0-1.78,1.2c-.81.81-1.58,1.67-2.37,2.51-1.11,1.2-1.79,2.79-3.38,3.57A4.27,4.27,0,0,0,98.34,77c-.72,1.14-1.16,2.44-1.84,3.61-1,1.69-2.32,3.17-2.85,5.11a3.57,3.57,0,0,1-.47.85c-1.25,2-2.51,4.07-3.74,6.12-.2.32-.23.74-.44,1.05-.72,1.09-1.51,2.13-2.22,3.23-1,1.55-2,3.13-2.93,4.72-.55.93-1.38,1.87-1.47,2.85C82.09,107.69,82.08,110.84,82,113.87Zm-25.38,5.68a2.52,2.52,0,0,0-.76-.17c-2.44.34-4.88.67-7.31,1.08-3.62.61-7.25,1.22-10.84,2-2.66.55-5.27,1.32-7.92,1.92s-5.23,1-7.78,1.66c-3,.82-5.82,2-8.78,2.85a38.78,38.78,0,0,0-8.1,3.56c-.15.09-.21.35-.31.53.2.11.4.31.61.31,1.69,0,3.39,0,5.08,0,3.93-.05,7.86-.05,11.78-.22,2.22-.1,4.43-.5,6.65-.75,3-.34,6.06-.64,9.08-1,2.82-.33,5.63-.68,8.44-1.07a1.76,1.76,0,0,0,1-.65c1-1.35,2-2.76,3-4.11.19-.25.65-.3,1-.45a4.27,4.27,0,0,0,1.48-.67,33.69,33.69,0,0,0,2.22-2.8C55.6,121,56,120.31,56.59,119.55Zm22.67,4.89c-.52,0-1-.07-1.4-.08-1.51,0-3.51-1.87-3.5-3.27v-3.57c-1,.12-1.75.26-2.55.31-3,.2-5.93.29-8.89.58-1.09.11-2.27.16-3.06,1.38-1.35,2.09-2.92,4-4.4,6l-2.6,3.59a4.78,4.78,0,0,0,1,.16c2.59-.27,5.19-.56,7.78-.85,2.85-.31,5.71-.62,8.56-1,1.26-.15,1.94.23,1.87,1.08l1.19.16a2.1,2.1,0,0,0-.89-.52,2,2,0,0,1-.47-.41c.14-.13.28-.34.43-.36,1.52-.17,3-.32,4.56-.44,2.29-.2,2.46.54,2.29-2.34A2.63,2.63,0,0,1,79.26,124.44Zm15.8-96.57-.26-.05a3.44,3.44,0,0,0,.44-.85c.21-1,.32-2.08.57-3.09s.62-1.89.87-2.84c0-.19-.18-.46-.29-.69-.17.19-.43.36-.49.58-.2.72-.3,1.46-.5,2.18-.81,2.85-1.64,5.7-2.47,8.54-.36,1.2-.8,2.38-1.09,3.6-.4,1.62-.67,3.27-1,4.89-.19.78-.5,1.52-.77,2.32h.21c-.45,2-.9,3.91-1.34,5.85l.47.12Zm-.57,46.38.26.27c.61-.54,1.25-1,1.8-1.62a8.64,8.64,0,0,0,1.33-1.8c.67-1.29,1.24-2.64,1.83-4,.8-1.78,1.58-3.56,2.37-5.34l-.39-.2A89.78,89.78,0,0,0,94.49,74.25ZM93,80.35c-1-.69-1.66-.55-2.06.52-.33.9-.62,1.81-1,2.68-1.32,3-2.68,6-4,9l.1.07ZM81.6,120.29c1.27.17,5.1-2.09,5.68-3.25H81.87Zm-2-3c-2.1-.17-2.14-.13-2.18,1.8,0,.27-.17.62,0,.78.28.37.64.83,1,.92s.88-.42,1-.75A20.26,20.26,0,0,0,79.6,117.31Zm-8-2.63c.32,0,.94,0,1.55,0a3.14,3.14,0,0,0,3.31-3.17Zm86,8.63c.38.23.76.65,1.13.65.93,0,1.76-.58,2.8-.26a6.1,6.1,0,0,0,2.25-.2l0-.3c-.3,0-.6,0-.89,0-1.37.07-2.74.21-4.11.23-.71,0-1.43-.21-2.14-.26-.14,0-.3.31-.44.47l.19.26Zm-54.3,3.07-.08-.42a10.71,10.71,0,0,1-2.81.43,3.41,3.41,0,0,0-2.64.55Zm-71.66,7-.06-.37-3.31.64,0,.13Zm146.7-10.66-3.14.45a15.15,15.15,0,0,0,2.78.12C178.06,123.25,178.15,123,178.32,122.68Zm-50.69,1.94-.1-.32-2.69,1,.11.25Zm-59.11,4.66c0-.18,0,0,0,0a10.53,10.53,0,0,0,1.36.17,2.28,2.28,0,0,0,.79-.19.93.93,0,0,0-.06-.37,3.94,3.94,0,0,0-.91,0A12.36,12.36,0,0,0,68.52,129.28Zm98.52-6,0-.3-2.45.34,0,.27Zm-87.32-11-.43,2,.43.07Zm51.21,12.63-.07-.3-1.5.31,0,.13Zm.58-.21.23.37,1.43-.87-.12-.22Zm-27.81,1.68.07.29,1.56-.25-.1-.48Zm31.85-1.8.06-.29h-1.26v.15Zm-20.53.89-.1-.25-1.08.43.12.31Zm20.88-9.52.09-.13-1.12-.4,0,.09Zm11,8.49,0-.3h-1.28v.3Zm-7.2-.56-.06.32a2,2,0,0,0,.7.26c.13,0,.26-.27.51-.58ZM112,126l.29.27,1-1.27-.28-.22Zm26.89-1.62.09-.38-1.1-.21-.07.49Zm-30.23,1.5,0,.28.81-.16-.06-.29Zm8.11-.84-.3,0-.25.73.86.27Zm-21.68,2.07.09.29c.23,0,.52,0,.66-.07s0-.42.08-.88Zm-17,1.3,0,.08,1,.11,0-.28Zm75.17-4.64.14.24.89-.43-.19-.31ZM128.27,125l.2.09.38-.86-.15-.07ZM88.43,50.31l.08,0,.59-.55-.19-.19Zm91.68,73.12.06-.29-.79-.15,0,.23Zm-29.3.72.09-.35-1.16-.25,0,.18ZM107,66.26l.16.15.49-.57-.15-.14Zm5.64,22.81.29-.1-.28-.79-.33.13Zm4.9,36.43,0,.17,1.24-.07,0-.34ZM96.68,127l.34.07.07-.68-.27,0Zm51.83-3.2,0,.26.72.13,0-.39Zm-38.38,1.93.65.33.07-.19Zm-29.65,4.84-.19-.06-.15.48.2.06Zm56.31-7-.4.13c.1.25.19.51.31.76a1.21,1.21,0,0,0,.3-.08ZM96.9,65.81v.08h.55v-.08Zm9.69,60.28-.06-.17-.59.31.09.15Zm-32.2-10.44-.21,0-.09.45.13,0Zm96.17,7.67A3.4,3.4,0,0,0,170,123a1.11,1.11,0,0,0-.36,0v.23Zm40.1-.72,0,.08h.43v-.08Zm-121,4.89.26.15.19-.46-.16-.08ZM99.81,62.37v-.14h-.42l0,.24Zm52.43,61.74.06-.32-.64-.12-.06.26Zm-64-72.67.08.08.37-.3-.13-.14Zm62.17,67.69h.05l-.53.12h0Zm34.7,3.72,0,.23.77-.23ZM92.87,27.91l.22-.14-.39-.27Zm62,90.92a1.28,1.28,0,0,0,.14-.23s-.08-.12-.1-.11a.52.52,0,0,0-.19.11Zm-34.13-4.19-.09-.06-.28.35.15.1ZM81.21,128.1l.14.14.29-.26-.19-.2Zm43-2.83c.07-.08.15-.13.15-.19s-.06-.14-.09-.21a1,1,0,0,0-.21.19S124.15,125.18,124.22,125.27Zm-47.76,3.57.05-.1-.23-.1s0,0-.06.05Zm76.45-9.46-.07-.06-.37.44Zm-5.41,4.4a1.36,1.36,0,0,0-.18-.17s-.08,0-.13.07a1,1,0,0,0,.16.19S147.43,123.82,147.5,123.78Zm64.39-1.53v.06l-.08,0Z"/><path class="cls-1" d="M145.94,96.31c.15-.09.42-.17.42-.26,0-1.37,1-1,1.79-1.11.55-.07,1-.49,1.6-.57a7,7,0,0,1,1.57,0,4.13,4.13,0,0,1,1.33-.31,3.81,3.81,0,0,1,1.07.63c0-1.12,1-1.08,1.68-1.08A6.08,6.08,0,0,1,159.49,95a1.66,1.66,0,0,0,1.37.07c1.07-.41,2.09-1,3.12-1.46,1.66-.83,1.38-2.81,2.36-4a29.31,29.31,0,0,1,3-3.37,13.86,13.86,0,0,1,2.78-1.67c.75-.4,2,.12,2,.92a20.17,20.17,0,0,1-.22,3.2c0,.21-.3.4-.5.56-.46.37-1,.67-1.41,1.07-.7.65-1.36,1.35-2,2s-1.28,1-.84,2c.07.15-.15.42-.21.64a13.58,13.58,0,0,1-2.17,4.25l.2.27,2-.66c.69-.23,1.39-.44,2.07-.71a4.3,4.3,0,0,0,1.06-.61c.75-.58,1.46-1.2,2.2-1.79.39-.31.94-.5,1.2-.9.48-.72.88-1.47,2-1.59a7.54,7.54,0,0,1-1.36-.84c-1.24-1.3-1.31-1.82-.27-3.46.72-1.14,1.35-2.43,2.83-2.84,1.33,1.09,1.61,1,3.51-.53a31.55,31.55,0,0,1,3.49-2.88,15.64,15.64,0,0,1,4-1.6c.86-.24,1.43.81,1.61,1.7.26,1.34-.57,1.93-1.3,2.65a1.16,1.16,0,0,1-.43.3,5.22,5.22,0,0,1-.79.14l.38.54c-2,1.75-4,3.48-5.93,5.26-.76.69-1.39,1.52-2.12,2.26a5.89,5.89,0,0,1-1,.72c-.38.27-.79.5-1.15.78-1,.78-2,1.59-3,2.38s-1.68,1.41-2.58,2c-1.11.76-2.31,1.4-3.44,2.13s-2.38,1.53-3.5,2.38-2,.7-3.11-.15c-1.49-1.13-1.09-2.4-.75-3.77.14-.55.23-1.11.38-1.86a6.66,6.66,0,0,1-1.88.62c-.84,0-2,0-2.45-.52-1.56-1.67-3.44-1.77-5.41-1.47s-4.1.91-6.17,1.3c-1.51.28-3.06.38-4.58.65-1.27.22-2.52.65-3.79.85-1.06.16-2.14.11-3.22.18-.86,0-1.72.12-2.86.21-.32-.54-.73-1.25-1.19-1.93-.09-.13-.49-.25-.59-.17-1.75,1.43-3.48,2.9-5.29,4.41l-.06-.8c-.29.53-.42,1.15-.8,1.41-1.21.82-2.52,1.52-3.79,2.26-2,1.15-4,2.32-6,3.45-1.52.86-3.08,1.65-4.62,2.49a3.7,3.7,0,0,1-4.07,0,2.68,2.68,0,0,1-.42-3.48c1.2-1.68,2.36-3.38,3.56-5.06.26-.35.64-.6.93-.92.8-.86,1.55-1.76,2.37-2.58s1.61-1.43,2.38-2.18,1.25-1.34,1.87-2c.9-1,1.77-2.06,2.72-3,1.38-1.41,2.81-2.78,4.23-4.15a19.3,19.3,0,0,1,3.25-2.9c.94-.56,1.56-1.81,2.92-1.64a.66.66,0,0,0,.43-.26,1.23,1.23,0,0,1,2.21.58c.27,1.1.64,2.31-.5,3.26a1.26,1.26,0,0,0-.27.72c-.76.91-1.37,1.66-2,2.41-.78.93-1.54,1.86-2.33,2.78s-1.52,1.8-2.36,2.62a34.46,34.46,0,0,1-3.56,3.17c-1.6,1.16-3.34,2.14-5,3.18a3.27,3.27,0,0,1-1.13.41,3.48,3.48,0,0,0-2.4,1.4c-1,1.24-2.2,2.32-3.29,3.48a4,4,0,0,0-.39.88c1.11-.34,2-.52,2.73-.85a21.32,21.32,0,0,0,2.18-1.23c.92-.53,1.85-1,2.74-1.61,1.42-.92,2.81-1.9,4.22-2.83.3-.2.68-.27,1-.45a29.41,29.41,0,0,0,7-6,20.18,20.18,0,0,1,2.58-2.3,4.13,4.13,0,0,1,3.5,0c.87.86.36,1.89.25,2.83-.08.71.12.92.75,1,1.25.06,2.5.15,3.75.18a6.37,6.37,0,0,0,1.5-.2c.59-.14,1.18-.35,1.94-.58V97.7a2,2,0,0,0,.25-.44c.15-.46.12-1.15.42-1.33a5.15,5.15,0,0,1,1.76-.35c0,.25-.08.49-.12.75l-.48.63.27.14Zm9.05-.14V96h-1.13l0,.25ZM141.4,98.31l.16,0,.08-.46-.1,0Zm-5.06.89,0-.11-.31-.2a1,1,0,0,0-.05.21A1.86,1.86,0,0,0,136.34,99.2ZM147.08,97h.1l.08-.22-.07,0Zm-33.63,10.27,0,.16A.94.94,0,0,1,113.45,107.23Z"/><path class="cls-1" d="M142.06,123.34v.29l-.3-.06Z"/></svg>
